<svg xmlns="http://www.w3.org/2000/svg" viewBox="0 0 55.01 33.48"><defs><style>.cls-1{fill:#fff;}</style></defs><g id="Layer_2" data-name="Layer 2"><g id="Layer_1-2" data-name="Layer 1"><path class="cls-1" d="M32.7,18.83c0,.21,0,.43,0,.64a20.6,20.6,0,0,1-1.63,7.43h0a18.33,18.33,0,0,1-2.17,3.74l-.08.1c-.17.25-.37.49-.57.73l-.08.09a3.18,3.18,0,0,1-.31.34l0,.05-.13.15-.07.08-.12.13h0l0,0-.09-.08v0h0l-.05-.06c-.16-.17-.32-.35-.47-.53a3.47,3.47,0,0,1-.35-.43c-.22-.26-.42-.52-.61-.79a18.71,18.71,0,0,1-2-3.52,20.3,20.3,0,0,1-1.59-7q0-.51,0-1c0-.16,0-.32,0-.48a20.24,20.24,0,0,1,1.06-6.08L27.48,0l4.15,12.28a20.08,20.08,0,0,1,1.05,5.79C32.7,18.33,32.7,18.58,32.7,18.83Z"></path><path class="cls-1" d="M23.06,27.44a19.13,19.13,0,0,0,2.66,4.36c-7.71-2-11.87-5.75-14.09-9.49q-.27-.46-.51-.93a17.73,17.73,0,0,1-1.7-10.64c.51,4.34,9.25,6.58,9.25,6.58a6.21,6.21,0,0,1,2.6,1.46v.06a21.25,21.25,0,0,0,1,6.57c.22.69.48,1.33.73,2Z"></path><path class="cls-1" d="M43.55,21.32c-.15.31-.32.61-.5.92-2.16,3.69-6.21,7.36-13.69,9.44a18,18,0,0,0,2.49-4.16s0,0,0,0a20.2,20.2,0,0,0,.79-2.05,21.57,21.57,0,0,0,1-6.62c0-.11,0-.21,0-.32A6.09,6.09,0,0,1,36,17.32s8.75-2.24,9.26-6.58A17.71,17.71,0,0,1,43.55,21.32Z"></path><path class="cls-1" d="M25.54,32.79C4.46,37,0,20.35,0,20.35c2,3,7.87,2.52,10.61,2.13C12.89,26.55,17.27,30.61,25.54,32.79Z"></path><path class="cls-1" d="M55,20.35s-4.48,16.79-25.74,12.4c8.2-2.2,12.53-6.26,14.79-10.32C46.61,22.82,53,23.46,55,20.35Z"></path></g></g></svg>